<?xml version="1.0" encoding="utf-8"?>
<!-- Generator: Adobe Illustrator 19.2.0, SVG Export Plug-In . SVG Version: 6.00 Build 0)  -->
<svg version="1.1" id="Capa_1" xmlns="http://www.w3.org/2000/svg" xmlns:xlink="http://www.w3.org/1999/xlink" x="0px" y="0px"
	 viewBox="0 0 254.4 240.5" style="enable-background:new 0 0 254.4 240.5;" xml:space="preserve">
<style type="text/css">
	.st0{fill:#00A290;}
	.st1{fill:#FFFFFF;}
	.st2{fill:#003126;}
	.st3{font-family:'Montserrat-Bold';}
	.st4{font-size:60px;}
</style>
<g>
	<circle class="st0" cx="126.8" cy="90.4" r="69"/>
	<path class="st1" d="M151.9,78.6h-0.2c0,0-0.1-0.2-0.1-0.3V63.7c0-10.8-8.3-19.1-19.1-19.1H124c-10.8,0-20.4,8.3-20.4,19.1v14.6
		c0,0.1,0.5,0.3,0.5,0.3H103c-5.2,0-10.3,4.1-10.3,9.2v38c0,5.2,5.2,9.8,10.3,9.8h48.9c5.2,0,8.8-4.7,8.8-9.8v-38
		C160.7,82.6,157.1,78.6,151.9,78.6z M110.7,64.1c0-7.4,7.3-13.5,14.7-13.5h5.9c7.4,0,12.4,6.1,12.4,13.5v14.5h-33V64.1z
		 M131.2,109.7c0,0-0.5,0-0.5,0.1v7.3c0,2.1-0.6,4.5-2.7,4.5h-0.1c-2.1,0-5.2-2.5-5.2-4.5v-7.3c0,0,0.8,0,0.8-0.1
		c-2-1.3-2.9-3.5-2.9-6c0-3.9,3.3-7.1,7.3-7.1s6.9,3.2,6.9,7.1C134.6,106.2,133.2,108.5,131.2,109.7z"/>
</g>
<text transform="matrix(1 0 0 1 10.187 222.0891)" class="st2 st3 st4">Secrets</text>
</svg>
